<?xml version="1.0" encoding="UTF-8" standalone="no"?>
<!-- Created with Inkscape (http://www.inkscape.org/) -->

<svg
   xmlns:dc="http://purl.org/dc/elements/1.1/"
   xmlns:cc="http://creativecommons.org/ns#"
   xmlns:rdf="http://www.w3.org/1999/02/22-rdf-syntax-ns#"
   xmlns:svg="http://www.w3.org/2000/svg"
   xmlns="http://www.w3.org/2000/svg"
   xmlns:sodipodi="http://sodipodi.sourceforge.net/DTD/sodipodi-0.dtd"
   xmlns:inkscape="http://www.inkscape.org/namespaces/inkscape"
   id="svg3747"
   height="90"
   width="90"
   version="1.1"
   inkscape:version="0.48.4 r9939"
   sodipodi:docname="media-playback-pause.svg">
  <defs
     id="defs11" />
  <sodipodi:namedview
     pagecolor="#ffffff"
     bordercolor="#666666"
     borderopacity="1"
     objecttolerance="10"
     gridtolerance="10"
     guidetolerance="10"
     inkscape:pageopacity="0"
     inkscape:pageshadow="2"
     inkscape:window-width="1088"
     inkscape:window-height="554"
     id="namedview9"
     showgrid="false"
     inkscape:zoom="2.6222222"
     inkscape:cx="45"
     inkscape:cy="45"
     inkscape:window-x="2076"
     inkscape:window-y="343"
     inkscape:window-maximized="0"
     inkscape:current-layer="svg3747" />
  <metadata
     id="metadata3752">
    <rdf:RDF>
      <cc:Work
         rdf:about="">
        <dc:format>image/svg+xml</dc:format>
        <dc:type
           rdf:resource="http://purl.org/dc/dcmitype/StillImage" />
        <dc:title />
      </cc:Work>
    </rdf:RDF>
  </metadata>
  <g
     id="g3008">
    <g
       id="g3003">
      <path
         id="path4175"
         style="color:#000000;fill:#ffffff"
         d="m 30,18 c 7.3373,0 9,0 9,9.0978 v 35.804 c 0,9.0978 -1.5348,9.0978 -9,9.0979 -7.4652,5e-5 -9,-4e-5 -9,-9.0979 V 27.0978 C 21,18 22.6627,18 30,18 z"
         inkscape:connector-curvature="0" />
      <path
         id="path4185"
         style="color:#000000;fill:#ffffff"
         d="m 60,18 c 6.75,0 9,0 9,9.0978 v 35.804 c 0,9.0978 -2.25,9.0978 -9,9.0979 -6.75,5e-5 -9,-4e-5 -9,-9.0979 V 27.0978 C 51,18 53.25,18 60,18 z"
         inkscape:connector-curvature="0" />
      <rect
         id="rect2986"
         style="color:#000000;fill:none"
         height="90"
         width="90"
         y="-1.4648437e-05"
         x="0" />
    </g>
  </g>
</svg>
